<svg viewBox="0 0 1078 382" xmlns="http://www.w3.org/2000/svg" role="img" font-family="Arial,Helvetica,sans-serif"><title>Раскладка ЙЦУКЕН — зоны пальцев</title><desc>Объёмная клавиатура со стрелками от ряда покоя ФЫВА/ОЛДЖ к клавишам каждого пальца.</desc><defs><linearGradient id="g0_18" x1="0" y1="0" x2="0" y2="1"><stop offset="0" stop-color="#ffffff"/><stop offset="1" stop-color="#dfe3ea"/></linearGradient><linearGradient id="g0_88" x1="0" y1="0" x2="0" y2="1"><stop offset="0" stop-color="#ffffff"/><stop offset="1" stop-color="#dfe3ea"/></linearGradient><linearGradient id="g0_158" x1="0" y1="0" x2="0" y2="1"><stop offset="0" stop-color="#ffffff"/><stop offset="1" stop-color="#dfe3ea"/></linearGradient><linearGradient id="g0_228" x1="0" y1="0" x2="0" y2="1"><stop offset="0" stop-color="#ffffff"/><stop offset="1" stop-color="#dfe3ea"/></linearGradient><linearGradient id="g0_298" x1="0" y1="0" x2="0" y2="1"><stop offset="0" stop-color="#ffffff"/><stop offset="1" stop-color="#dfe3ea"/></linearGradient><linearGradient id="g0_368" x1="0" y1="0" x2="0" y2="1"><stop offset="0" stop-color="#ffffff"/><stop offset="1" stop-color="#dfe3ea"/></linearGradient><linearGradient id="g0_438" x1="0" y1="0" x2="0" y2="1"><stop offset="0" stop-color="#ffffff"/><stop offset="1" stop-color="#dfe3ea"/></linearGradient><linearGradient id="g0_508" x1="0" y1="0" x2="0" y2="1"><stop offset="0" stop-color="#ffffff"/><stop offset="1" stop-color="#dfe3ea"/></linearGradient><linearGradient id="g0_578" x1="0" y1="0" x2="0" y2="1"><stop offset="0" stop-color="#ffffff"/><stop offset="1" stop-color="#dfe3ea"/></linearGradient><linearGradient id="g0_648" x1="0" y1="0" x2="0" y2="1"><stop offset="0" stop-color="#ffffff"/><stop offset="1" stop-color="#dfe3ea"/></linearGradient><linearGradient id="g0_718" x1="0" y1="0" x2="0" y2="1"><stop offset="0" stop-color="#ffffff"/><stop offset="1" stop-color="#dfe3ea"/></linearGradient><linearGradient id="g0_788" x1="0" y1="0" x2="0" y2="1"><stop offset="0" stop-color="#ffffff"/><stop offset="1" stop-color="#dfe3ea"/></linearGradient><linearGradient id="g0_858" x1="0" y1="0" x2="0" y2="1"><stop offset="0" stop-color="#ffffff"/><stop offset="1" stop-color="#dfe3ea"/></linearGradient><linearGradient id="g0_928" x1="0" y1="0" x2="0" y2="1"><stop offset="0" stop-color="#ffffff"/><stop offset="1" stop-color="#dfe3ea"/></linearGradient><linearGradient id="g1_18" x1="0" y1="0" x2="0" y2="1"><stop offset="0" stop-color="#ffffff"/><stop offset="1" stop-color="#dfe3ea"/></linearGradient><linearGradient id="g1_123" x1="0" y1="0" x2="0" y2="1"><stop offset="0" stop-color="#ffffff"/><stop offset="1" stop-color="#dfe3ea"/></linearGradient><linearGradient id="g1_193" x1="0" y1="0" x2="0" y2="1"><stop offset="0" stop-color="#ffffff"/><stop offset="1" stop-color="#dfe3ea"/></linearGradient><linearGradient id="g1_263" x1="0" y1="0" x2="0" y2="1"><stop offset="0" stop-color="#ffffff"/><stop offset="1" stop-color="#dfe3ea"/></linearGradient><linearGradient id="g1_333" x1="0" y1="0" x2="0" y2="1"><stop offset="0" stop-color="#ffffff"/><stop offset="1" stop-color="#dfe3ea"/></linearGradient><linearGradient id="g1_403" x1="0" y1="0" x2="0" y2="1"><stop offset="0" stop-color="#ffffff"/><stop offset="1" stop-color="#dfe3ea"/></linearGradient><linearGradient id="g1_473" x1="0" y1="0" x2="0" y2="1"><stop offset="0" stop-color="#ffffff"/><stop offset="1" stop-color="#dfe3ea"/></linearGradient><linearGradient id="g1_543" x1="0" y1="0" x2="0" y2="1"><stop offset="0" stop-color="#ffffff"/><stop offset="1" stop-color="#dfe3ea"/></linearGradient><linearGradient id="g1_613" x1="0" y1="0" x2="0" y2="1"><stop offset="0" stop-color="#ffffff"/><stop offset="1" stop-color="#dfe3ea"/></linearGradient><linearGradient id="g1_683" x1="0" y1="0" x2="0" y2="1"><stop offset="0" stop-color="#ffffff"/><stop offset="1" stop-color="#dfe3ea"/></linearGradient><linearGradient id="g1_753" x1="0" y1="0" x2="0" y2="1"><stop offset="0" stop-color="#ffffff"/><stop offset="1" stop-color="#dfe3ea"/></linearGradient><linearGradient id="g1_823" x1="0" y1="0" x2="0" y2="1"><stop offset="0" stop-color="#ffffff"/><stop offset="1" stop-color="#dfe3ea"/></linearGradient><linearGradient id="g1_893" x1="0" y1="0" x2="0" y2="1"><stop offset="0" stop-color="#ffffff"/><stop offset="1" stop-color="#dfe3ea"/></linearGradient><linearGradient id="g1_963" x1="0" y1="0" x2="0" y2="1"><stop offset="0" stop-color="#ffffff"/><stop offset="1" stop-color="#dfe3ea"/></linearGradient><linearGradient id="g2_18" x1="0" y1="0" x2="0" y2="1"><stop offset="0" stop-color="#ffffff"/><stop offset="1" stop-color="#dfe3ea"/></linearGradient><linearGradient id="g2_144" x1="0" y1="0" x2="0" y2="1"><stop offset="0" stop-color="#eaf4ff"/><stop offset="1" stop-color="#bfdde6"/></linearGradient><linearGradient id="g2_214" x1="0" y1="0" x2="0" y2="1"><stop offset="0" stop-color="#eaf4ff"/><stop offset="1" stop-color="#bfdde6"/></linearGradient><linearGradient id="g2_284" x1="0" y1="0" x2="0" y2="1"><stop offset="0" stop-color="#eaf4ff"/><stop offset="1" stop-color="#bfdde6"/></linearGradient><linearGradient id="g2_354" x1="0" y1="0" x2="0" y2="1"><stop offset="0" stop-color="#eaf4ff"/><stop offset="1" stop-color="#bfdde6"/></linearGradient><linearGradient id="g2_424" x1="0" y1="0" x2="0" y2="1"><stop offset="0" stop-color="#ffffff"/><stop offset="1" stop-color="#dfe3ea"/></linearGradient><linearGradient id="g2_494" x1="0" y1="0" x2="0" y2="1"><stop offset="0" stop-color="#ffffff"/><stop offset="1" stop-color="#dfe3ea"/></linearGradient><linearGradient id="g2_564" x1="0" y1="0" x2="0" y2="1"><stop offset="0" stop-color="#eaf4ff"/><stop offset="1" stop-color="#bfdde6"/></linearGradient><linearGradient id="g2_634" x1="0" y1="0" x2="0" y2="1"><stop offset="0" stop-color="#eaf4ff"/><stop offset="1" stop-color="#bfdde6"/></linearGradient><linearGradient id="g2_704" x1="0" y1="0" x2="0" y2="1"><stop offset="0" stop-color="#eaf4ff"/><stop offset="1" stop-color="#bfdde6"/></linearGradient><linearGradient id="g2_774" x1="0" y1="0" x2="0" y2="1"><stop offset="0" stop-color="#eaf4ff"/><stop offset="1" stop-color="#bfdde6"/></linearGradient><linearGradient id="g2_844" x1="0" y1="0" x2="0" y2="1"><stop offset="0" stop-color="#ffffff"/><stop offset="1" stop-color="#dfe3ea"/></linearGradient><linearGradient id="g2_914" x1="0" y1="0" x2="0" y2="1"><stop offset="0" stop-color="#ffffff"/><stop offset="1" stop-color="#dfe3ea"/></linearGradient><linearGradient id="g3_18" x1="0" y1="0" x2="0" y2="1"><stop offset="0" stop-color="#ffffff"/><stop offset="1" stop-color="#dfe3ea"/></linearGradient><linearGradient id="g3_179" x1="0" y1="0" x2="0" y2="1"><stop offset="0" stop-color="#ffffff"/><stop offset="1" stop-color="#dfe3ea"/></linearGradient><linearGradient id="g3_249" x1="0" y1="0" x2="0" y2="1"><stop offset="0" stop-color="#ffffff"/><stop offset="1" stop-color="#dfe3ea"/></linearGradient><linearGradient id="g3_319" x1="0" y1="0" x2="0" y2="1"><stop offset="0" stop-color="#ffffff"/><stop offset="1" stop-color="#dfe3ea"/></linearGradient><linearGradient id="g3_389" x1="0" y1="0" x2="0" y2="1"><stop offset="0" stop-color="#ffffff"/><stop offset="1" stop-color="#dfe3ea"/></linearGradient><linearGradient id="g3_459" x1="0" y1="0" x2="0" y2="1"><stop offset="0" stop-color="#ffffff"/><stop offset="1" stop-color="#dfe3ea"/></linearGradient><linearGradient id="g3_529" x1="0" y1="0" x2="0" y2="1"><stop offset="0" stop-color="#ffffff"/><stop offset="1" stop-color="#dfe3ea"/></linearGradient><linearGradient id="g3_599" x1="0" y1="0" x2="0" y2="1"><stop offset="0" stop-color="#ffffff"/><stop offset="1" stop-color="#dfe3ea"/></linearGradient><linearGradient id="g3_669" x1="0" y1="0" x2="0" y2="1"><stop offset="0" stop-color="#ffffff"/><stop offset="1" stop-color="#dfe3ea"/></linearGradient><linearGradient id="g3_739" x1="0" y1="0" x2="0" y2="1"><stop offset="0" stop-color="#ffffff"/><stop offset="1" stop-color="#dfe3ea"/></linearGradient><linearGradient id="g3_809" x1="0" y1="0" x2="0" y2="1"><stop offset="0" stop-color="#ffffff"/><stop offset="1" stop-color="#dfe3ea"/></linearGradient><linearGradient id="g3_879" x1="0" y1="0" x2="0" y2="1"><stop offset="0" stop-color="#ffffff"/><stop offset="1" stop-color="#dfe3ea"/></linearGradient><linearGradient id="g4_18" x1="0" y1="0" x2="0" y2="1"><stop offset="0" stop-color="#ffffff"/><stop offset="1" stop-color="#dfe3ea"/></linearGradient><linearGradient id="g4_116" x1="0" y1="0" x2="0" y2="1"><stop offset="0" stop-color="#ffffff"/><stop offset="1" stop-color="#dfe3ea"/></linearGradient><linearGradient id="g4_207" x1="0" y1="0" x2="0" y2="1"><stop offset="0" stop-color="#ffffff"/><stop offset="1" stop-color="#dfe3ea"/></linearGradient><linearGradient id="g4_697" x1="0" y1="0" x2="0" y2="1"><stop offset="0" stop-color="#ffffff"/><stop offset="1" stop-color="#dfe3ea"/></linearGradient><linearGradient id="g4_788" x1="0" y1="0" x2="0" y2="1"><stop offset="0" stop-color="#ffffff"/><stop offset="1" stop-color="#dfe3ea"/></linearGradient><marker id="mk0" markerWidth="7" markerHeight="7" refX="5.3" refY="3" orient="auto"><path d="M0,0 L6,3 L0,6 L1.8,3 Z" fill="#e74c3c"/></marker><marker id="mk1" markerWidth="7" markerHeight="7" refX="5.3" refY="3" orient="auto"><path d="M0,0 L6,3 L0,6 L1.8,3 Z" fill="#e74c3c"/></marker><marker id="mk2" markerWidth="7" markerHeight="7" refX="5.3" refY="3" orient="auto"><path d="M0,0 L6,3 L0,6 L1.8,3 Z" fill="#e8821e"/></marker><marker id="mk3" markerWidth="7" markerHeight="7" refX="5.3" refY="3" orient="auto"><path d="M0,0 L6,3 L0,6 L1.8,3 Z" fill="#e8821e"/></marker><marker id="mk4" markerWidth="7" markerHeight="7" refX="5.3" refY="3" orient="auto"><path d="M0,0 L6,3 L0,6 L1.8,3 Z" fill="#f1b30a"/></marker><marker id="mk5" markerWidth="7" markerHeight="7" refX="5.3" refY="3" orient="auto"><path d="M0,0 L6,3 L0,6 L1.8,3 Z" fill="#f1b30a"/></marker><marker id="mk6" markerWidth="7" markerHeight="7" refX="5.3" refY="3" orient="auto"><path d="M0,0 L6,3 L0,6 L1.8,3 Z" fill="#2ecc71"/></marker><marker id="mk7" markerWidth="7" markerHeight="7" refX="5.3" refY="3" orient="auto"><path d="M0,0 L6,3 L0,6 L1.8,3 Z" fill="#2ecc71"/></marker><marker id="mk8" markerWidth="7" markerHeight="7" refX="5.3" refY="3" orient="auto"><path d="M0,0 L6,3 L0,6 L1.8,3 Z" fill="#2ecc71"/></marker><marker id="mk9" markerWidth="7" markerHeight="7" refX="5.3" refY="3" orient="auto"><path d="M0,0 L6,3 L0,6 L1.8,3 Z" fill="#2ecc71"/></marker><marker id="mk10" markerWidth="7" markerHeight="7" refX="5.3" refY="3" orient="auto"><path d="M0,0 L6,3 L0,6 L1.8,3 Z" fill="#2ecc71"/></marker><marker id="mk11" markerWidth="7" markerHeight="7" refX="5.3" refY="3" orient="auto"><path d="M0,0 L6,3 L0,6 L1.8,3 Z" fill="#16a8a0"/></marker><marker id="mk12" markerWidth="7" markerHeight="7" refX="5.3" refY="3" orient="auto"><path d="M0,0 L6,3 L0,6 L1.8,3 Z" fill="#16a8a0"/></marker><marker id="mk13" markerWidth="7" markerHeight="7" refX="5.3" refY="3" orient="auto"><path d="M0,0 L6,3 L0,6 L1.8,3 Z" fill="#16a8a0"/></marker><marker id="mk14" markerWidth="7" markerHeight="7" refX="5.3" refY="3" orient="auto"><path d="M0,0 L6,3 L0,6 L1.8,3 Z" fill="#16a8a0"/></marker><marker id="mk15" markerWidth="7" markerHeight="7" refX="5.3" refY="3" orient="auto"><path d="M0,0 L6,3 L0,6 L1.8,3 Z" fill="#16a8a0"/></marker><marker id="mk16" markerWidth="7" markerHeight="7" refX="5.3" refY="3" orient="auto"><path d="M0,0 L6,3 L0,6 L1.8,3 Z" fill="#2f86d6"/></marker><marker id="mk17" markerWidth="7" markerHeight="7" refX="5.3" refY="3" orient="auto"><path d="M0,0 L6,3 L0,6 L1.8,3 Z" fill="#2f86d6"/></marker><marker id="mk18" markerWidth="7" markerHeight="7" refX="5.3" refY="3" orient="auto"><path d="M0,0 L6,3 L0,6 L1.8,3 Z" fill="#8e63d6"/></marker><marker id="mk19" markerWidth="7" markerHeight="7" refX="5.3" refY="3" orient="auto"><path d="M0,0 L6,3 L0,6 L1.8,3 Z" fill="#8e63d6"/></marker><marker id="mk20" markerWidth="7" markerHeight="7" refX="5.3" refY="3" orient="auto"><path d="M0,0 L6,3 L0,6 L1.8,3 Z" fill="#e0418f"/></marker><marker id="mk21" markerWidth="7" markerHeight="7" refX="5.3" refY="3" orient="auto"><path d="M0,0 L6,3 L0,6 L1.8,3 Z" fill="#e0418f"/></marker><marker id="mk22" markerWidth="7" markerHeight="7" refX="5.3" refY="3" orient="auto"><path d="M0,0 L6,3 L0,6 L1.8,3 Z" fill="#e0418f"/></marker><marker id="mk23" markerWidth="7" markerHeight="7" refX="5.3" refY="3" orient="auto"><path d="M0,0 L6,3 L0,6 L1.8,3 Z" fill="#e0418f"/></marker></defs><rect width="1078" height="382" rx="18" fill="#f5f7fb"/><rect x="18" y="21" width="62" height="62" rx="9" fill="#9aa3b2" opacity="0.5"/><rect x="18" y="18" width="62" height="62" rx="9" fill="url(#g0_18)" stroke="#c2c8d2" stroke-width="1"/><rect x="21" y="20.5" width="56" height="25" rx="7" fill="#ffffff" opacity="0.5"/><text x="27" y="43" font-size="20" font-weight="700" fill="#2c3340">`</text><text x="71" y="68" text-anchor="end" font-size="19" font-weight="800" fill="#e74c3c">Ё</text><rect x="88" y="21" width="62" height="62" rx="9" fill="#9aa3b2" opacity="0.5"/><rect x="88" y="18" width="62" height="62" rx="9" fill="url(#g0_88)" stroke="#c2c8d2" stroke-width="1"/><rect x="91" y="20.5" width="56" height="25" rx="7" fill="#ffffff" opacity="0.5"/><text x="97" y="43" font-size="20" font-weight="700" fill="#2c3340">1</text><text x="141" y="68" text-anchor="end" font-size="19" font-weight="800" fill="#e74c3c">!</text><rect x="158" y="21" width="62" height="62" rx="9" fill="#9aa3b2" opacity="0.5"/><rect x="158" y="18" width="62" height="62" rx="9" fill="url(#g0_158)" stroke="#c2c8d2" stroke-width="1"/><rect x="161" y="20.5" width="56" height="25" rx="7" fill="#ffffff" opacity="0.5"/><text x="167" y="43" font-size="20" font-weight="700" fill="#2c3340">2</text><text x="211" y="68" text-anchor="end" font-size="19" font-weight="800" fill="#e8821e">@</text><rect x="228" y="21" width="62" height="62" rx="9" fill="#9aa3b2" opacity="0.5"/><rect x="228" y="18" width="62" height="62" rx="9" fill="url(#g0_228)" stroke="#c2c8d2" stroke-width="1"/><rect x="231" y="20.5" width="56" height="25" rx="7" fill="#ffffff" opacity="0.5"/><text x="237" y="43" font-size="20" font-weight="700" fill="#2c3340">3</text><text x="281" y="68" text-anchor="end" font-size="19" font-weight="800" fill="#f1b30a">#</text><rect x="298" y="21" width="62" height="62" rx="9" fill="#9aa3b2" opacity="0.5"/><rect x="298" y="18" width="62" height="62" rx="9" fill="url(#g0_298)" stroke="#c2c8d2" stroke-width="1"/><rect x="301" y="20.5" width="56" height="25" rx="7" fill="#ffffff" opacity="0.5"/><text x="307" y="43" font-size="20" font-weight="700" fill="#2c3340">4</text><text x="351" y="68" text-anchor="end" font-size="19" font-weight="800" fill="#2ecc71">$</text><rect x="368" y="21" width="62" height="62" rx="9" fill="#9aa3b2" opacity="0.5"/><rect x="368" y="18" width="62" height="62" rx="9" fill="url(#g0_368)" stroke="#c2c8d2" stroke-width="1"/><rect x="371" y="20.5" width="56" height="25" rx="7" fill="#ffffff" opacity="0.5"/><text x="377" y="43" font-size="20" font-weight="700" fill="#2c3340">5</text><text x="421" y="68" text-anchor="end" font-size="19" font-weight="800" fill="#2ecc71">%</text><rect x="438" y="21" width="62" height="62" rx="9" fill="#9aa3b2" opacity="0.5"/><rect x="438" y="18" width="62" height="62" rx="9" fill="url(#g0_438)" stroke="#c2c8d2" stroke-width="1"/><rect x="441" y="20.5" width="56" height="25" rx="7" fill="#ffffff" opacity="0.5"/><text x="447" y="43" font-size="20" font-weight="700" fill="#2c3340">6</text><text x="491" y="68" text-anchor="end" font-size="19" font-weight="800" fill="#16a8a0">^</text><rect x="508" y="21" width="62" height="62" rx="9" fill="#9aa3b2" opacity="0.5"/><rect x="508" y="18" width="62" height="62" rx="9" fill="url(#g0_508)" stroke="#c2c8d2" stroke-width="1"/><rect x="511" y="20.5" width="56" height="25" rx="7" fill="#ffffff" opacity="0.5"/><text x="517" y="43" font-size="20" font-weight="700" fill="#2c3340">7</text><text x="561" y="68" text-anchor="end" font-size="19" font-weight="800" fill="#16a8a0">&amp;</text><rect x="578" y="21" width="62" height="62" rx="9" fill="#9aa3b2" opacity="0.5"/><rect x="578" y="18" width="62" height="62" rx="9" fill="url(#g0_578)" stroke="#c2c8d2" stroke-width="1"/><rect x="581" y="20.5" width="56" height="25" rx="7" fill="#ffffff" opacity="0.5"/><text x="587" y="43" font-size="20" font-weight="700" fill="#2c3340">8</text><text x="631" y="68" text-anchor="end" font-size="19" font-weight="800" fill="#2f86d6">*</text><rect x="648" y="21" width="62" height="62" rx="9" fill="#9aa3b2" opacity="0.5"/><rect x="648" y="18" width="62" height="62" rx="9" fill="url(#g0_648)" stroke="#c2c8d2" stroke-width="1"/><rect x="651" y="20.5" width="56" height="25" rx="7" fill="#ffffff" opacity="0.5"/><text x="657" y="43" font-size="20" font-weight="700" fill="#2c3340">9</text><text x="701" y="68" text-anchor="end" font-size="19" font-weight="800" fill="#8e63d6">(</text><rect x="718" y="21" width="62" height="62" rx="9" fill="#9aa3b2" opacity="0.5"/><rect x="718" y="18" width="62" height="62" rx="9" fill="url(#g0_718)" stroke="#c2c8d2" stroke-width="1"/><rect x="721" y="20.5" width="56" height="25" rx="7" fill="#ffffff" opacity="0.5"/><text x="727" y="43" font-size="20" font-weight="700" fill="#2c3340">0</text><text x="771" y="68" text-anchor="end" font-size="19" font-weight="800" fill="#e0418f">)</text><rect x="788" y="21" width="62" height="62" rx="9" fill="#9aa3b2" opacity="0.5"/><rect x="788" y="18" width="62" height="62" rx="9" fill="url(#g0_788)" stroke="#c2c8d2" stroke-width="1"/><rect x="791" y="20.5" width="56" height="25" rx="7" fill="#ffffff" opacity="0.5"/><text x="797" y="43" font-size="20" font-weight="700" fill="#2c3340">-</text><text x="841" y="68" text-anchor="end" font-size="19" font-weight="800" fill="#e0418f">_</text><rect x="858" y="21" width="62" height="62" rx="9" fill="#9aa3b2" opacity="0.5"/><rect x="858" y="18" width="62" height="62" rx="9" fill="url(#g0_858)" stroke="#c2c8d2" stroke-width="1"/><rect x="861" y="20.5" width="56" height="25" rx="7" fill="#ffffff" opacity="0.5"/><text x="867" y="43" font-size="20" font-weight="700" fill="#2c3340">=</text><text x="911" y="68" text-anchor="end" font-size="19" font-weight="800" fill="#e0418f">+</text><rect x="928" y="21" width="132" height="62" rx="9" fill="#9aa3b2" opacity="0.5"/><rect x="928" y="18" width="132" height="62" rx="9" fill="url(#g0_928)" stroke="#c2c8d2" stroke-width="1"/><rect x="931" y="20.5" width="126" height="25" rx="7" fill="#ffffff" opacity="0.5"/><text x="994.0" y="54.0" text-anchor="middle" font-size="20" font-weight="700" fill="#5b6472">⌫</text><rect x="18" y="91" width="97.0" height="62" rx="9" fill="#9aa3b2" opacity="0.5"/><rect x="18" y="88" width="97.0" height="62" rx="9" fill="url(#g1_18)" stroke="#c2c8d2" stroke-width="1"/><rect x="21" y="90.5" width="91.0" height="25" rx="7" fill="#ffffff" opacity="0.5"/><text x="66.5" y="124.0" text-anchor="middle" font-size="14" font-weight="700" fill="#5b6472">Tab</text><rect x="123.0" y="91" width="62" height="62" rx="9" fill="#9aa3b2" opacity="0.5"/><rect x="123.0" y="88" width="62" height="62" rx="9" fill="url(#g1_123)" stroke="#c2c8d2" stroke-width="1"/><rect x="126.0" y="90.5" width="56" height="25" rx="7" fill="#ffffff" opacity="0.5"/><text x="132.0" y="113" font-size="20" font-weight="700" fill="#2c3340">Q</text><text x="176.0" y="138" text-anchor="end" font-size="19" font-weight="800" fill="#e74c3c">Й</text><rect x="193.0" y="91" width="62" height="62" rx="9" fill="#9aa3b2" opacity="0.5"/><rect x="193.0" y="88" width="62" height="62" rx="9" fill="url(#g1_193)" stroke="#c2c8d2" stroke-width="1"/><rect x="196.0" y="90.5" width="56" height="25" rx="7" fill="#ffffff" opacity="0.5"/><text x="202.0" y="113" font-size="20" font-weight="700" fill="#2c3340">W</text><text x="246.0" y="138" text-anchor="end" font-size="19" font-weight="800" fill="#e8821e">Ц</text><rect x="263.0" y="91" width="62" height="62" rx="9" fill="#9aa3b2" opacity="0.5"/><rect x="263.0" y="88" width="62" height="62" rx="9" fill="url(#g1_263)" stroke="#c2c8d2" stroke-width="1"/><rect x="266.0" y="90.5" width="56" height="25" rx="7" fill="#ffffff" opacity="0.5"/><text x="272.0" y="113" font-size="20" font-weight="700" fill="#2c3340">E</text><text x="316.0" y="138" text-anchor="end" font-size="19" font-weight="800" fill="#f1b30a">У</text><rect x="333.0" y="91" width="62" height="62" rx="9" fill="#9aa3b2" opacity="0.5"/><rect x="333.0" y="88" width="62" height="62" rx="9" fill="url(#g1_333)" stroke="#c2c8d2" stroke-width="1"/><rect x="336.0" y="90.5" width="56" height="25" rx="7" fill="#ffffff" opacity="0.5"/><text x="342.0" y="113" font-size="20" font-weight="700" fill="#2c3340">R</text><text x="386.0" y="138" text-anchor="end" font-size="19" font-weight="800" fill="#2ecc71">К</text><rect x="403.0" y="91" width="62" height="62" rx="9" fill="#9aa3b2" opacity="0.5"/><rect x="403.0" y="88" width="62" height="62" rx="9" fill="url(#g1_403)" stroke="#c2c8d2" stroke-width="1"/><rect x="406.0" y="90.5" width="56" height="25" rx="7" fill="#ffffff" opacity="0.5"/><text x="412.0" y="113" font-size="20" font-weight="700" fill="#2c3340">T</text><text x="456.0" y="138" text-anchor="end" font-size="19" font-weight="800" fill="#2ecc71">Е</text><rect x="473.0" y="91" width="62" height="62" rx="9" fill="#9aa3b2" opacity="0.5"/><rect x="473.0" y="88" width="62" height="62" rx="9" fill="url(#g1_473)" stroke="#c2c8d2" stroke-width="1"/><rect x="476.0" y="90.5" width="56" height="25" rx="7" fill="#ffffff" opacity="0.5"/><text x="482.0" y="113" font-size="20" font-weight="700" fill="#2c3340">Y</text><text x="526.0" y="138" text-anchor="end" font-size="19" font-weight="800" fill="#16a8a0">Н</text><rect x="543.0" y="91" width="62" height="62" rx="9" fill="#9aa3b2" opacity="0.5"/><rect x="543.0" y="88" width="62" height="62" rx="9" fill="url(#g1_543)" stroke="#c2c8d2" stroke-width="1"/><rect x="546.0" y="90.5" width="56" height="25" rx="7" fill="#ffffff" opacity="0.5"/><text x="552.0" y="113" font-size="20" font-weight="700" fill="#2c3340">U</text><text x="596.0" y="138" text-anchor="end" font-size="19" font-weight="800" fill="#16a8a0">Г</text><rect x="613.0" y="91" width="62" height="62" rx="9" fill="#9aa3b2" opacity="0.5"/><rect x="613.0" y="88" width="62" height="62" rx="9" fill="url(#g1_613)" stroke="#c2c8d2" stroke-width="1"/><rect x="616.0" y="90.5" width="56" height="25" rx="7" fill="#ffffff" opacity="0.5"/><text x="622.0" y="113" font-size="20" font-weight="700" fill="#2c3340">I</text><text x="666.0" y="138" text-anchor="end" font-size="19" font-weight="800" fill="#2f86d6">Ш</text><rect x="683.0" y="91" width="62" height="62" rx="9" fill="#9aa3b2" opacity="0.5"/><rect x="683.0" y="88" width="62" height="62" rx="9" fill="url(#g1_683)" stroke="#c2c8d2" stroke-width="1"/><rect x="686.0" y="90.5" width="56" height="25" rx="7" fill="#ffffff" opacity="0.5"/><text x="692.0" y="113" font-size="20" font-weight="700" fill="#2c3340">O</text><text x="736.0" y="138" text-anchor="end" font-size="19" font-weight="800" fill="#8e63d6">Щ</text><rect x="753.0" y="91" width="62" height="62" rx="9" fill="#9aa3b2" opacity="0.5"/><rect x="753.0" y="88" width="62" height="62" rx="9" fill="url(#g1_753)" stroke="#c2c8d2" stroke-width="1"/><rect x="756.0" y="90.5" width="56" height="25" rx="7" fill="#ffffff" opacity="0.5"/><text x="762.0" y="113" font-size="20" font-weight="700" fill="#2c3340">P</text><text x="806.0" y="138" text-anchor="end" font-size="19" font-weight="800" fill="#e0418f">З</text><rect x="823.0" y="91" width="62" height="62" rx="9" fill="#9aa3b2" opacity="0.5"/><rect x="823.0" y="88" width="62" height="62" rx="9" fill="url(#g1_823)" stroke="#c2c8d2" stroke-width="1"/><rect x="826.0" y="90.5" width="56" height="25" rx="7" fill="#ffffff" opacity="0.5"/><text x="832.0" y="113" font-size="20" font-weight="700" fill="#2c3340">[</text><text x="876.0" y="138" text-anchor="end" font-size="19" font-weight="800" fill="#e0418f">Х</text><rect x="893.0" y="91" width="62" height="62" rx="9" fill="#9aa3b2" opacity="0.5"/><rect x="893.0" y="88" width="62" height="62" rx="9" fill="url(#g1_893)" stroke="#c2c8d2" stroke-width="1"/><rect x="896.0" y="90.5" width="56" height="25" rx="7" fill="#ffffff" opacity="0.5"/><text x="902.0" y="113" font-size="20" font-weight="700" fill="#2c3340">]</text><text x="946.0" y="138" text-anchor="end" font-size="19" font-weight="800" fill="#e0418f">Ъ</text><rect x="963.0" y="91" width="97.0" height="62" rx="9" fill="#9aa3b2" opacity="0.5"/><rect x="963.0" y="88" width="97.0" height="62" rx="9" fill="url(#g1_963)" stroke="#c2c8d2" stroke-width="1"/><rect x="966.0" y="90.5" width="91.0" height="25" rx="7" fill="#ffffff" opacity="0.5"/><text x="1011.5" y="124.0" text-anchor="middle" font-size="20" font-weight="700" fill="#5b6472">\</text><rect x="18" y="161" width="118.00000000000001" height="62" rx="9" fill="#9aa3b2" opacity="0.5"/><rect x="18" y="158" width="118.00000000000001" height="62" rx="9" fill="url(#g2_18)" stroke="#c2c8d2" stroke-width="1"/><rect x="21" y="160.5" width="112.00000000000001" height="25" rx="7" fill="#ffffff" opacity="0.5"/><text x="77.0" y="194.0" text-anchor="middle" font-size="14" font-weight="700" fill="#5b6472">Caps</text><rect x="144.0" y="161" width="62" height="62" rx="9" fill="#9aa3b2" opacity="0.5"/><rect x="144.0" y="158" width="62" height="62" rx="9" fill="url(#g2_144)" stroke="#e74c3c" stroke-width="2.6"/><rect x="147.0" y="160.5" width="56" height="25" rx="7" fill="#ffffff" opacity="0.5"/><text x="153.0" y="183" font-size="20" font-weight="700" fill="#2c3340">A</text><text x="197.0" y="208" text-anchor="end" font-size="19" font-weight="800" fill="#e74c3c">Ф</text><rect x="214.0" y="161" width="62" height="62" rx="9" fill="#9aa3b2" opacity="0.5"/><rect x="214.0" y="158" width="62" height="62" rx="9" fill="url(#g2_214)" stroke="#e8821e" stroke-width="2.6"/><rect x="217.0" y="160.5" width="56" height="25" rx="7" fill="#ffffff" opacity="0.5"/><text x="223.0" y="183" font-size="20" font-weight="700" fill="#2c3340">S</text><text x="267.0" y="208" text-anchor="end" font-size="19" font-weight="800" fill="#e8821e">Ы</text><rect x="284.0" y="161" width="62" height="62" rx="9" fill="#9aa3b2" opacity="0.5"/><rect x="284.0" y="158" width="62" height="62" rx="9" fill="url(#g2_284)" stroke="#f1b30a" stroke-width="2.6"/><rect x="287.0" y="160.5" width="56" height="25" rx="7" fill="#ffffff" opacity="0.5"/><text x="293.0" y="183" font-size="20" font-weight="700" fill="#2c3340">D</text><text x="337.0" y="208" text-anchor="end" font-size="19" font-weight="800" fill="#f1b30a">В</text><rect x="354.0" y="161" width="62" height="62" rx="9" fill="#9aa3b2" opacity="0.5"/><rect x="354.0" y="158" width="62" height="62" rx="9" fill="url(#g2_354)" stroke="#2ecc71" stroke-width="2.6"/><rect x="357.0" y="160.5" width="56" height="25" rx="7" fill="#ffffff" opacity="0.5"/><text x="363.0" y="183" font-size="20" font-weight="700" fill="#2c3340">F</text><text x="407.0" y="208" text-anchor="end" font-size="19" font-weight="800" fill="#2ecc71">А</text><rect x="376.0" y="209" width="18" height="3.5" rx="1.8" fill="#2ecc71"/><rect x="424.0" y="161" width="62" height="62" rx="9" fill="#9aa3b2" opacity="0.5"/><rect x="424.0" y="158" width="62" height="62" rx="9" fill="url(#g2_424)" stroke="#c2c8d2" stroke-width="1"/><rect x="427.0" y="160.5" width="56" height="25" rx="7" fill="#ffffff" opacity="0.5"/><text x="433.0" y="183" font-size="20" font-weight="700" fill="#2c3340">G</text><text x="477.0" y="208" text-anchor="end" font-size="19" font-weight="800" fill="#2ecc71">П</text><rect x="494.0" y="161" width="62" height="62" rx="9" fill="#9aa3b2" opacity="0.5"/><rect x="494.0" y="158" width="62" height="62" rx="9" fill="url(#g2_494)" stroke="#c2c8d2" stroke-width="1"/><rect x="497.0" y="160.5" width="56" height="25" rx="7" fill="#ffffff" opacity="0.5"/><text x="503.0" y="183" font-size="20" font-weight="700" fill="#2c3340">H</text><text x="547.0" y="208" text-anchor="end" font-size="19" font-weight="800" fill="#16a8a0">Р</text><rect x="564.0" y="161" width="62" height="62" rx="9" fill="#9aa3b2" opacity="0.5"/><rect x="564.0" y="158" width="62" height="62" rx="9" fill="url(#g2_564)" stroke="#16a8a0" stroke-width="2.6"/><rect x="567.0" y="160.5" width="56" height="25" rx="7" fill="#ffffff" opacity="0.5"/><text x="573.0" y="183" font-size="20" font-weight="700" fill="#2c3340">J</text><text x="617.0" y="208" text-anchor="end" font-size="19" font-weight="800" fill="#16a8a0">О</text><rect x="586.0" y="209" width="18" height="3.5" rx="1.8" fill="#16a8a0"/><rect x="634.0" y="161" width="62" height="62" rx="9" fill="#9aa3b2" opacity="0.5"/><rect x="634.0" y="158" width="62" height="62" rx="9" fill="url(#g2_634)" stroke="#2f86d6" stroke-width="2.6"/><rect x="637.0" y="160.5" width="56" height="25" rx="7" fill="#ffffff" opacity="0.5"/><text x="643.0" y="183" font-size="20" font-weight="700" fill="#2c3340">K</text><text x="687.0" y="208" text-anchor="end" font-size="19" font-weight="800" fill="#2f86d6">Л</text><rect x="704.0" y="161" width="62" height="62" rx="9" fill="#9aa3b2" opacity="0.5"/><rect x="704.0" y="158" width="62" height="62" rx="9" fill="url(#g2_704)" stroke="#8e63d6" stroke-width="2.6"/><rect x="707.0" y="160.5" width="56" height="25" rx="7" fill="#ffffff" opacity="0.5"/><text x="713.0" y="183" font-size="20" font-weight="700" fill="#2c3340">L</text><text x="757.0" y="208" text-anchor="end" font-size="19" font-weight="800" fill="#8e63d6">Д</text><rect x="774.0" y="161" width="62" height="62" rx="9" fill="#9aa3b2" opacity="0.5"/><rect x="774.0" y="158" width="62" height="62" rx="9" fill="url(#g2_774)" stroke="#e0418f" stroke-width="2.6"/><rect x="777.0" y="160.5" width="56" height="25" rx="7" fill="#ffffff" opacity="0.5"/><text x="783.0" y="183" font-size="20" font-weight="700" fill="#2c3340">;</text><text x="827.0" y="208" text-anchor="end" font-size="19" font-weight="800" fill="#e0418f">Ж</text><rect x="844.0" y="161" width="62" height="62" rx="9" fill="#9aa3b2" opacity="0.5"/><rect x="844.0" y="158" width="62" height="62" rx="9" fill="url(#g2_844)" stroke="#c2c8d2" stroke-width="1"/><rect x="847.0" y="160.5" width="56" height="25" rx="7" fill="#ffffff" opacity="0.5"/><text x="853.0" y="183" font-size="20" font-weight="700" fill="#2c3340">'</text><text x="897.0" y="208" text-anchor="end" font-size="19" font-weight="800" fill="#e0418f">Э</text><rect x="914.0" y="161" width="126.39999999999999" height="62" rx="9" fill="#9aa3b2" opacity="0.5"/><rect x="914.0" y="158" width="126.39999999999999" height="62" rx="9" fill="url(#g2_914)" stroke="#c2c8d2" stroke-width="1"/><rect x="917.0" y="160.5" width="120.39999999999999" height="25" rx="7" fill="#ffffff" opacity="0.5"/><text x="977.2" y="194.0" text-anchor="middle" font-size="14" font-weight="700" fill="#5b6472">Enter</text><rect x="18" y="231" width="153.0" height="62" rx="9" fill="#9aa3b2" opacity="0.5"/><rect x="18" y="228" width="153.0" height="62" rx="9" fill="url(#g3_18)" stroke="#c2c8d2" stroke-width="1"/><rect x="21" y="230.5" width="147.0" height="25" rx="7" fill="#ffffff" opacity="0.5"/><text x="94.5" y="264.0" text-anchor="middle" font-size="14" font-weight="700" fill="#5b6472">Shift</text><rect x="179.0" y="231" width="62" height="62" rx="9" fill="#9aa3b2" opacity="0.5"/><rect x="179.0" y="228" width="62" height="62" rx="9" fill="url(#g3_179)" stroke="#c2c8d2" stroke-width="1"/><rect x="182.0" y="230.5" width="56" height="25" rx="7" fill="#ffffff" opacity="0.5"/><text x="188.0" y="253" font-size="20" font-weight="700" fill="#2c3340">Z</text><text x="232.0" y="278" text-anchor="end" font-size="19" font-weight="800" fill="#e74c3c">Я</text><rect x="249.0" y="231" width="62" height="62" rx="9" fill="#9aa3b2" opacity="0.5"/><rect x="249.0" y="228" width="62" height="62" rx="9" fill="url(#g3_249)" stroke="#c2c8d2" stroke-width="1"/><rect x="252.0" y="230.5" width="56" height="25" rx="7" fill="#ffffff" opacity="0.5"/><text x="258.0" y="253" font-size="20" font-weight="700" fill="#2c3340">X</text><text x="302.0" y="278" text-anchor="end" font-size="19" font-weight="800" fill="#e8821e">Ч</text><rect x="319.0" y="231" width="62" height="62" rx="9" fill="#9aa3b2" opacity="0.5"/><rect x="319.0" y="228" width="62" height="62" rx="9" fill="url(#g3_319)" stroke="#c2c8d2" stroke-width="1"/><rect x="322.0" y="230.5" width="56" height="25" rx="7" fill="#ffffff" opacity="0.5"/><text x="328.0" y="253" font-size="20" font-weight="700" fill="#2c3340">C</text><text x="372.0" y="278" text-anchor="end" font-size="19" font-weight="800" fill="#f1b30a">С</text><rect x="389.0" y="231" width="62" height="62" rx="9" fill="#9aa3b2" opacity="0.5"/><rect x="389.0" y="228" width="62" height="62" rx="9" fill="url(#g3_389)" stroke="#c2c8d2" stroke-width="1"/><rect x="392.0" y="230.5" width="56" height="25" rx="7" fill="#ffffff" opacity="0.5"/><text x="398.0" y="253" font-size="20" font-weight="700" fill="#2c3340">V</text><text x="442.0" y="278" text-anchor="end" font-size="19" font-weight="800" fill="#2ecc71">М</text><rect x="459.0" y="231" width="62" height="62" rx="9" fill="#9aa3b2" opacity="0.5"/><rect x="459.0" y="228" width="62" height="62" rx="9" fill="url(#g3_459)" stroke="#c2c8d2" stroke-width="1"/><rect x="462.0" y="230.5" width="56" height="25" rx="7" fill="#ffffff" opacity="0.5"/><text x="468.0" y="253" font-size="20" font-weight="700" fill="#2c3340">B</text><text x="512.0" y="278" text-anchor="end" font-size="19" font-weight="800" fill="#2ecc71">И</text><rect x="529.0" y="231" width="62" height="62" rx="9" fill="#9aa3b2" opacity="0.5"/><rect x="529.0" y="228" width="62" height="62" rx="9" fill="url(#g3_529)" stroke="#c2c8d2" stroke-width="1"/><rect x="532.0" y="230.5" width="56" height="25" rx="7" fill="#ffffff" opacity="0.5"/><text x="538.0" y="253" font-size="20" font-weight="700" fill="#2c3340">N</text><text x="582.0" y="278" text-anchor="end" font-size="19" font-weight="800" fill="#16a8a0">Т</text><rect x="599.0" y="231" width="62" height="62" rx="9" fill="#9aa3b2" opacity="0.5"/><rect x="599.0" y="228" width="62" height="62" rx="9" fill="url(#g3_599)" stroke="#c2c8d2" stroke-width="1"/><rect x="602.0" y="230.5" width="56" height="25" rx="7" fill="#ffffff" opacity="0.5"/><text x="608.0" y="253" font-size="20" font-weight="700" fill="#2c3340">M</text><text x="652.0" y="278" text-anchor="end" font-size="19" font-weight="800" fill="#16a8a0">Ь</text><rect x="669.0" y="231" width="62" height="62" rx="9" fill="#9aa3b2" opacity="0.5"/><rect x="669.0" y="228" width="62" height="62" rx="9" fill="url(#g3_669)" stroke="#c2c8d2" stroke-width="1"/><rect x="672.0" y="230.5" width="56" height="25" rx="7" fill="#ffffff" opacity="0.5"/><text x="678.0" y="253" font-size="20" font-weight="700" fill="#2c3340">,</text><text x="722.0" y="278" text-anchor="end" font-size="19" font-weight="800" fill="#2f86d6">Б</text><rect x="739.0" y="231" width="62" height="62" rx="9" fill="#9aa3b2" opacity="0.5"/><rect x="739.0" y="228" width="62" height="62" rx="9" fill="url(#g3_739)" stroke="#c2c8d2" stroke-width="1"/><rect x="742.0" y="230.5" width="56" height="25" rx="7" fill="#ffffff" opacity="0.5"/><text x="748.0" y="253" font-size="20" font-weight="700" fill="#2c3340">.</text><text x="792.0" y="278" text-anchor="end" font-size="19" font-weight="800" fill="#8e63d6">Ю</text><rect x="809.0" y="231" width="62" height="62" rx="9" fill="#9aa3b2" opacity="0.5"/><rect x="809.0" y="228" width="62" height="62" rx="9" fill="url(#g3_809)" stroke="#c2c8d2" stroke-width="1"/><rect x="812.0" y="230.5" width="56" height="25" rx="7" fill="#ffffff" opacity="0.5"/><text x="818.0" y="253" font-size="20" font-weight="700" fill="#2c3340">/</text><text x="862.0" y="278" text-anchor="end" font-size="19" font-weight="800" fill="#e0418f">.</text><rect x="879.0" y="231" width="161.39999999999998" height="62" rx="9" fill="#9aa3b2" opacity="0.5"/><rect x="879.0" y="228" width="161.39999999999998" height="62" rx="9" fill="url(#g3_879)" stroke="#c2c8d2" stroke-width="1"/><rect x="882.0" y="230.5" width="155.39999999999998" height="25" rx="7" fill="#ffffff" opacity="0.5"/><text x="959.7" y="264.0" text-anchor="middle" font-size="14" font-weight="700" fill="#5b6472">Shift</text><rect x="18" y="301" width="90.0" height="62" rx="9" fill="#9aa3b2" opacity="0.5"/><rect x="18" y="298" width="90.0" height="62" rx="9" fill="url(#g4_18)" stroke="#c2c8d2" stroke-width="1"/><rect x="21" y="300.5" width="84.0" height="25" rx="7" fill="#ffffff" opacity="0.5"/><text x="63.0" y="334.0" text-anchor="middle" font-size="14" font-weight="700" fill="#5b6472">Ctrl</text><rect x="116.0" y="301" width="83.00000000000001" height="62" rx="9" fill="#9aa3b2" opacity="0.5"/><rect x="116.0" y="298" width="83.00000000000001" height="62" rx="9" fill="url(#g4_116)" stroke="#c2c8d2" stroke-width="1"/><rect x="119.0" y="300.5" width="77.00000000000001" height="25" rx="7" fill="#ffffff" opacity="0.5"/><text x="157.5" y="334.0" text-anchor="middle" font-size="14" font-weight="700" fill="#5b6472">Alt</text><rect x="207.0" y="301" width="482.0" height="62" rx="9" fill="#9aa3b2" opacity="0.5"/><rect x="207.0" y="298" width="482.0" height="62" rx="9" fill="url(#g4_207)" stroke="#c2c8d2" stroke-width="1"/><rect x="210.0" y="300.5" width="476.0" height="25" rx="7" fill="#ffffff" opacity="0.5"/><rect x="697.0" y="301" width="83.00000000000001" height="62" rx="9" fill="#9aa3b2" opacity="0.5"/><rect x="697.0" y="298" width="83.00000000000001" height="62" rx="9" fill="url(#g4_697)" stroke="#c2c8d2" stroke-width="1"/><rect x="700.0" y="300.5" width="77.00000000000001" height="25" rx="7" fill="#ffffff" opacity="0.5"/><text x="738.5" y="334.0" text-anchor="middle" font-size="14" font-weight="700" fill="#5b6472">Alt</text><rect x="788.0" y="301" width="90.0" height="62" rx="9" fill="#9aa3b2" opacity="0.5"/><rect x="788.0" y="298" width="90.0" height="62" rx="9" fill="url(#g4_788)" stroke="#c2c8d2" stroke-width="1"/><rect x="791.0" y="300.5" width="84.0" height="25" rx="7" fill="#ffffff" opacity="0.5"/><text x="833.0" y="334.0" text-anchor="middle" font-size="14" font-weight="700" fill="#5b6472">Ctrl</text><path d="M175,189 Q179,150 154,119" fill="none" stroke="#27303f" stroke-width="5.5" opacity="0.16" stroke-linecap="round"/><path d="M175,189 Q179,150 154,119" fill="none" stroke="#e74c3c" stroke-width="3.3" stroke-linecap="round" marker-end="url(#mk0)"/><path d="M175,189 Q179,231 210,259" fill="none" stroke="#27303f" stroke-width="5.5" opacity="0.16" stroke-linecap="round"/><path d="M175,189 Q179,231 210,259" fill="none" stroke="#e74c3c" stroke-width="3.3" stroke-linecap="round" marker-end="url(#mk1)"/><path d="M245,189 Q249,150 224,119" fill="none" stroke="#27303f" stroke-width="5.5" opacity="0.16" stroke-linecap="round"/><path d="M245,189 Q249,150 224,119" fill="none" stroke="#e8821e" stroke-width="3.3" stroke-linecap="round" marker-end="url(#mk2)"/><path d="M245,189 Q249,231 280,259" fill="none" stroke="#27303f" stroke-width="5.5" opacity="0.16" stroke-linecap="round"/><path d="M245,189 Q249,231 280,259" fill="none" stroke="#e8821e" stroke-width="3.3" stroke-linecap="round" marker-end="url(#mk3)"/><path d="M315,189 Q319,150 294,119" fill="none" stroke="#27303f" stroke-width="5.5" opacity="0.16" stroke-linecap="round"/><path d="M315,189 Q319,150 294,119" fill="none" stroke="#f1b30a" stroke-width="3.3" stroke-linecap="round" marker-end="url(#mk4)"/><path d="M315,189 Q319,231 350,259" fill="none" stroke="#27303f" stroke-width="5.5" opacity="0.16" stroke-linecap="round"/><path d="M315,189 Q319,231 350,259" fill="none" stroke="#f1b30a" stroke-width="3.3" stroke-linecap="round" marker-end="url(#mk5)"/><path d="M385,189 Q389,150 364,119" fill="none" stroke="#27303f" stroke-width="5.5" opacity="0.16" stroke-linecap="round"/><path d="M385,189 Q389,150 364,119" fill="none" stroke="#2ecc71" stroke-width="3.3" stroke-linecap="round" marker-end="url(#mk6)"/><path d="M385,189 Q422,163 434,119" fill="none" stroke="#27303f" stroke-width="5.5" opacity="0.16" stroke-linecap="round"/><path d="M385,189 Q422,163 434,119" fill="none" stroke="#2ecc71" stroke-width="3.3" stroke-linecap="round" marker-end="url(#mk7)"/><path d="M385,189 Q420,204 455,189" fill="none" stroke="#27303f" stroke-width="5.5" opacity="0.16" stroke-linecap="round"/><path d="M385,189 Q420,204 455,189" fill="none" stroke="#2ecc71" stroke-width="3.3" stroke-linecap="round" marker-end="url(#mk8)"/><path d="M385,189 Q389,231 420,259" fill="none" stroke="#27303f" stroke-width="5.5" opacity="0.16" stroke-linecap="round"/><path d="M385,189 Q389,231 420,259" fill="none" stroke="#2ecc71" stroke-width="3.3" stroke-linecap="round" marker-end="url(#mk9)"/><path d="M385,189 Q429,236 490,259" fill="none" stroke="#27303f" stroke-width="5.5" opacity="0.16" stroke-linecap="round"/><path d="M385,189 Q429,236 490,259" fill="none" stroke="#2ecc71" stroke-width="3.3" stroke-linecap="round" marker-end="url(#mk10)"/><path d="M595,189 Q559,142 504,119" fill="none" stroke="#27303f" stroke-width="5.5" opacity="0.16" stroke-linecap="round"/><path d="M595,189 Q559,142 504,119" fill="none" stroke="#16a8a0" stroke-width="3.3" stroke-linecap="round" marker-end="url(#mk11)"/><path d="M595,189 Q599,150 574,119" fill="none" stroke="#27303f" stroke-width="5.5" opacity="0.16" stroke-linecap="round"/><path d="M595,189 Q599,150 574,119" fill="none" stroke="#16a8a0" stroke-width="3.3" stroke-linecap="round" marker-end="url(#mk12)"/><path d="M595,189 Q560,174 525,189" fill="none" stroke="#27303f" stroke-width="5.5" opacity="0.16" stroke-linecap="round"/><path d="M595,189 Q560,174 525,189" fill="none" stroke="#16a8a0" stroke-width="3.3" stroke-linecap="round" marker-end="url(#mk13)"/><path d="M595,189 Q564,217 560,259" fill="none" stroke="#27303f" stroke-width="5.5" opacity="0.16" stroke-linecap="round"/><path d="M595,189 Q564,217 560,259" fill="none" stroke="#16a8a0" stroke-width="3.3" stroke-linecap="round" marker-end="url(#mk14)"/><path d="M595,189 Q599,231 630,259" fill="none" stroke="#27303f" stroke-width="5.5" opacity="0.16" stroke-linecap="round"/><path d="M595,189 Q599,231 630,259" fill="none" stroke="#16a8a0" stroke-width="3.3" stroke-linecap="round" marker-end="url(#mk15)"/><path d="M665,189 Q669,150 644,119" fill="none" stroke="#27303f" stroke-width="5.5" opacity="0.16" stroke-linecap="round"/><path d="M665,189 Q669,150 644,119" fill="none" stroke="#2f86d6" stroke-width="3.3" stroke-linecap="round" marker-end="url(#mk16)"/><path d="M665,189 Q669,231 700,259" fill="none" stroke="#27303f" stroke-width="5.5" opacity="0.16" stroke-linecap="round"/><path d="M665,189 Q669,231 700,259" fill="none" stroke="#2f86d6" stroke-width="3.3" stroke-linecap="round" marker-end="url(#mk17)"/><path d="M735,189 Q739,150 714,119" fill="none" stroke="#27303f" stroke-width="5.5" opacity="0.16" stroke-linecap="round"/><path d="M735,189 Q739,150 714,119" fill="none" stroke="#8e63d6" stroke-width="3.3" stroke-linecap="round" marker-end="url(#mk18)"/><path d="M735,189 Q739,231 770,259" fill="none" stroke="#27303f" stroke-width="5.5" opacity="0.16" stroke-linecap="round"/><path d="M735,189 Q739,231 770,259" fill="none" stroke="#8e63d6" stroke-width="3.3" stroke-linecap="round" marker-end="url(#mk19)"/><path d="M805,189 Q809,150 784,119" fill="none" stroke="#27303f" stroke-width="5.5" opacity="0.16" stroke-linecap="round"/><path d="M805,189 Q809,150 784,119" fill="none" stroke="#e0418f" stroke-width="3.3" stroke-linecap="round" marker-end="url(#mk20)"/><path d="M805,189 Q842,163 854,119" fill="none" stroke="#27303f" stroke-width="5.5" opacity="0.16" stroke-linecap="round"/><path d="M805,189 Q842,163 854,119" fill="none" stroke="#e0418f" stroke-width="3.3" stroke-linecap="round" marker-end="url(#mk21)"/><path d="M805,189 Q872,167 924,119" fill="none" stroke="#27303f" stroke-width="5.5" opacity="0.16" stroke-linecap="round"/><path d="M805,189 Q872,167 924,119" fill="none" stroke="#e0418f" stroke-width="3.3" stroke-linecap="round" marker-end="url(#mk22)"/><path d="M805,189 Q809,231 840,259" fill="none" stroke="#27303f" stroke-width="5.5" opacity="0.16" stroke-linecap="round"/><path d="M805,189 Q809,231 840,259" fill="none" stroke="#e0418f" stroke-width="3.3" stroke-linecap="round" marker-end="url(#mk23)"/></svg>